<?xml version="1.0" encoding="utf-8"?>
<!-- Generator: Adobe Illustrator 19.0.0, SVG Export Plug-In . SVG Version: 6.00 Build 0)  -->
<svg version="1.1" id="Layer_1" xmlns="http://www.w3.org/2000/svg" xmlns:xlink="http://www.w3.org/1999/xlink" x="0px" y="0px"
	 viewBox="0 0 500 500" style="enable-background:new 0 0 500 500;" xml:space="preserve">
<style type="text/css">
	.st0{fill:#00E4BB;}
	.st1{fill:#002620;}
	.st2{fill-rule:evenodd;clip-rule:evenodd;fill:#00E4BB;}
</style>
<g id="XMLID_21_">
	<rect id="XMLID_23_" x="67.5" y="67.5" class="st0" width="365" height="365"/>
	<rect id="XMLID_26_" x="83.6" y="83.6" class="st1" width="332.9" height="332.9"/>
	<path id="XMLID_32_" class="st0" d="M170.2,274L157,318.9c-0.2,1.6-0.9,2.1-2.2,2.1h-22.1c-1.5,0-1.9-0.8-1.5-2.6
		c11.7-39.5,31.4-105.4,45.3-150.1c0.6-2.6,1.3-5.2,1.7-14.2c0-1,0.6-1.5,1.3-1.5h29.9c1.1,0,1.3,0.3,1.7,1.3
		c16,53,33.6,111.3,50,164.8c0.4,1.6,0,2.3-1.3,2.3h-24.3c-1.1,0-1.5-0.5-1.9-1.6L219.8,274H170.2z M213.9,248.6
		c-4.3-17.3-14.9-52.2-19.3-70.3h-0.2c-3.2,17-12.1,46.2-18.6,70.3H213.9z"/>
	<path id="XMLID_33_" class="st2" d="M364.8,295.9c0,1.7,0.2,7,0.7,15.6c0,1-0.1,1.5-1.1,1.7c-13.3,5-28,10.3-46.6,10.3
		c-22.8,0-44.7-8.8-44.7-43.9v-80.2c0-1.3,0.5-2,1.8-2h23.9c1.3,0,1.8,0.8,1.8,2v76.9c0,14.8,5.6,22.8,21.2,22.8
		c6.3,0,12-1.3,15.7-2.8v-97c0-1.3,0.5-2,1.8-2H363c1.5,0,1.8,0.8,1.8,2V295.9z"/>
</g>
</svg>
