<svg height="512" viewBox="0 0 46 60" width="512" xmlns="http://www.w3.org/2000/svg"><g id="018---Laser-Cutting"><path id="Shape" d="m38 0h-30c-1.1045695 0-2 .8954305-2 2v7c0 1.1045695.8954305 2 2 2h3v5c0 .39-.32-.26 6 10.28v3.44c0 .74 0 .63 2.85 5.31.3551046.6150891 1.0097779.9957131 1.72 1h.43v4.32l-21 8.26c-.5744934.2218025-.95334369.7741761-.95334369 1.39s.37885029 1.1681975.95334369 1.39c22.24 8.94 20.89 8.61 22 8.61s-.23.33 22-8.61c.57252-.2262744.9486607-.7793871.9486607-1.395s-.3761407-1.1687256-.9486607-1.395l-21-8.28v-4.32h.43c.7102221-.0042869 1.3648954-.3849109 1.72-1 2.76-4.6 2.85-4.57 2.85-5.31v-3.41c6.29-10.49 6-9.88 6-10.28v-5h3c1.1045695 0 2-.8954305 2-2v-7c0-1.1045695-.8954305-2-2-2zm-16 42.47v6.89l-9.69 4.47-9.46-3.83zm21.15 7.53-19.41 7.86c-.4751838.1892487-1.0048162.1892487-1.48 0l-7.41-3 8.57-4c.3385228-.1561447.5620841-.4876321.58-.86v-7.53zm-16.15-20.28-2.57 4.28h-2.86l-2.57-4.28v-2.72h8zm6-14.72h-11c-.5522847 0-1 .4477153-1 1s.4477153 1 1 1h10.23l-4.8 8h-8.86l-4.8-8h3.23c.5522847 0 1-.4477153 1-1s-.4477153-1-1-1h-4v-4h20zm5-6h-30v-7h2v2c0 .55228475.4477153 1 1 1s1-.44771525 1-1v-2h2v2c0 .55228475.4477153 1 1 1s1-.44771525 1-1v-2h2v2c0 .55228475.4477153 1 1 1s1-.44771525 1-1v-2h2v2c0 .55228475.4477153 1 1 1s1-.44771525 1-1v-2h2v2c0 .55228475.4477153 1 1 1s1-.44771525 1-1v-2h2v2c0 .55228475.4477153 1 1 1s1-.44771525 1-1v-2h2v2c0 .55228475.4477153 1 1 1s1-.44771525 1-1v-2h2z"/><path id="Shape" d="m37.23 25.26c.3394023-.1125387.5929843-.3975976.6652241-.747798s-.0478375-.7123383-.315-.95-.6408218-.3147407-.9802241-.202202c-3.94 1.3-5.53 4.93-3.76 8.72 1.25 2.69.23 5-2.58 6-.5045975.1858221-.7719067.737413-.605095 1.24861.1668116.5111969.7080145.7989576 1.225095.65139 1.8020935-.4585841 3.2897157-1.7268107 4.027649-3.4336483.7379332-1.7068377.6427699-3.6593649-.257649-5.2863517-1.26-2.73-.23-5.07 2.58-6z"/><path id="Shape" d="m44.74 15.44c.2541873-.0822594.4648892-.2628121.5851205-.501396.1202312-.2385839.1399933-.5153582.0548795-.768604-.1757093-.5203974-.7382565-.801671-1.26-.63-1.7991562.4594322-3.2842118 1.7260024-4.0218112 3.4301115-.7375995 1.7041092-.6446181 3.6537103.2518112 5.2798885 1.26 2.7.23 5.05-2.58 6-.5246705.1739697-.8089696.7403295-.635 1.265.1739697.5246705.7403295.8089697 1.265.635 3.94-1.3 5.53-4.93 3.76-8.71-1.25-2.73-.23-5.07 2.58-6z"/></g></svg>