<?xml version="1.0" encoding="utf-8"?>
<!-- Generator: Adobe Illustrator 25.0.1, SVG Export Plug-In . SVG Version: 6.00 Build 0)  -->
<svg version="1.1" id="レイヤー_1" xmlns="http://www.w3.org/2000/svg" xmlns:xlink="http://www.w3.org/1999/xlink" x="0px"
	 y="0px" viewBox="0 0 24 24" style="enable-background:new 0 0 24 24;" xml:space="preserve">
<style type="text/css">
	.st0{fill:#202225;}
</style>
<path class="st0" d="M7,17.9H6V9.9c0.3-0.2,0.6-0.4,1-0.6V17.9z M10,17.9h1V8.7c-0.2,0.3-0.4,0.5-0.6,0.9L10,9.4V17.9z M8,17.9h1
	V9.1C8.5,9,8.4,9,8,9.1V17.9z M4,17.9h1v-7c-0.3,0.5-0.6,1-0.7,1.5L4,12.3V17.9z M1,12.7C0.4,13.2,0,14,0,15s0.4,1.7,1,2.3V12.7z
	 M19.9,12c-0.2-2.8-2.4-5.1-5.1-5.1c-1,0-2,0.3-2.8,0.9v10.1h9.1c1.6,0,2.9-1.4,2.9-3.1C24,12.6,21.8,11.1,19.9,12z M3,12
	c-0.3,0-0.5,0-1,0.1v5.7c0.4,0.1,0.6,0.1,1,0.1V12z"/>
</svg>
