<!--?xml version="1.0" encoding="utf-8"?-->
<!-- Generator: Adobe Illustrator 18.1.1, SVG Export Plug-In . SVG Version: 6.00 Build 0)  -->

<svg version="1.1" id="_x31_0" xmlns="http://www.w3.org/2000/svg" xmlns:xlink="http://www.w3.org/1999/xlink" x="0px" y="0px" viewBox="0 0 512 512" style="width: 256px; height: 256px; opacity: 1;" xml:space="preserve">
<style type="text/css">
	.st0{fill:#374149;}
</style>
<g>
	<path class="st0" d="M450.74,0H61.26C29.811,0,4.23,25.586,4.23,57.03v225.343c0,22.239,18.098,40.338,40.338,40.338h422.865
		c22.24,0,40.338-18.098,40.338-40.338V57.03C507.77,25.586,482.188,0,450.74,0z M468.823,178.048H43.177V57.03
		c0-9.97,8.114-18.083,18.083-18.083h389.48c9.97,0,18.083,8.114,18.083,18.083V178.048z M43.177,205.87h425.646v76.504
		c0,0.764-0.626,1.39-1.391,1.39H44.567c-0.764,0-1.39-0.626-1.39-1.39V205.87z" style="fill: rgb(75, 75, 75);"></path>
	<polygon class="st0" points="371.166,261.348 371.166,261.505 439.802,261.505 439.802,233.93 439.806,233.845 439.802,233.845 
		439.802,233.687 371.166,233.687 371.166,261.178 371.166,261.348 	" style="fill: rgb(75, 75, 75);"></polygon>
	<polygon class="st0" points="405.193,125.347 405.193,125.19 106.807,125.19 106.807,136.127 106.807,136.162 106.807,136.162 
		106.807,136.319 405.193,136.319 405.193,125.378 405.193,125.347 	" style="fill: rgb(75, 75, 75);"></polygon>
	<polygon class="st0" points="405.193,97.368 106.807,97.368 106.807,108.306 106.807,108.34 106.807,108.34 106.807,108.498 
		405.193,108.498 405.193,97.556 405.193,97.526 405.193,97.526 	" style="fill: rgb(75, 75, 75);"></polygon>
	<path class="st0" d="M158.628,427.513l-2.886-3.465c-6.07-7.391-5.409-20.93,2.033-41.39c0.964-2.643,0.603-5.471-0.995-7.745
		c-1.729-2.478-4.775-4.022-7.945-4.022c-2.589,0-5.017,1.01-6.83,2.842c-19.862,20.07-29.581,36.734-28.878,49.52
		c0.588,10.902,5.375,17.606,8.671,21.39c2.866,3.85,5.916,7.491,8.613,10.703l2.908,3.496c6.07,7.391,5.406,20.934-2.032,41.398
		c-0.96,2.646-0.599,5.47,0.991,7.745c1.737,2.478,4.779,4.014,7.945,4.014l0,0c2.597,0,5.025-1.01,6.83-2.843
		c19.866-20.061,29.581-36.718,28.886-49.523c-0.591-10.902-5.378-17.606-8.678-21.386
		C164.394,434.386,161.329,430.736,158.628,427.513z" style="fill: rgb(75, 75, 75);"></path>
	<path class="st0" d="M270.122,427.544l-2.908-3.496c-6.074-7.391-5.409-20.93,2.036-41.39c0.961-2.647,0.592-5.471-0.998-7.745
		c-1.737-2.482-4.783-4.022-7.945-4.022c-2.597,0-5.018,1.01-6.83,2.842c-19.862,20.07-29.578,36.727-28.886,49.524
		c0.595,10.902,5.382,17.606,8.678,21.386c2.866,3.865,5.935,7.51,8.636,10.734l2.881,3.466c6.078,7.391,5.41,20.934-2.036,41.398
		c-0.956,2.646-0.595,5.47,0.999,7.745c1.736,2.478,4.779,4.014,7.945,4.014c2.593,0,5.021-1.01,6.826-2.843
		c19.866-20.061,29.585-36.718,28.886-49.515c-0.591-10.903-5.378-17.61-8.674-21.394
		C275.873,434.402,272.815,430.759,270.122,427.544z" style="fill: rgb(75, 75, 75);"></path>
	<path class="st0" d="M381.566,427.513l-2.89-3.465c-6.074-7.391-5.409-20.93,2.037-41.39c0.964-2.643,0.603-5.471-0.991-7.745
		c-1.737-2.478-4.779-4.022-7.945-4.022c-2.597,0-5.025,1.01-6.83,2.842c-19.87,20.07-29.586,36.734-28.89,49.52
		c0.591,10.902,5.378,17.606,8.678,21.39c2.862,3.85,5.904,7.484,8.602,10.695l2.919,3.504c6.07,7.391,5.402,20.934-2.036,41.398
		c-0.964,2.646-0.599,5.47,0.999,7.745c1.729,2.478,4.771,4.014,7.937,4.014l0,0c2.593,0,5.021-1.01,6.83-2.843
		c19.862-20.061,29.581-36.718,28.89-49.523c-0.591-10.902-5.378-17.606-8.674-21.386
		C387.329,434.386,384.27,430.736,381.566,427.513z" style="fill: rgb(75, 75, 75);"></path>
</g>
</svg>
