<?xml version="1.0" encoding="utf-8"?>
<!-- Generator: Adobe Illustrator 25.0.1, SVG Export Plug-In . SVG Version: 6.00 Build 0)  -->
<svg version="1.1" id="レイヤー_1" xmlns="http://www.w3.org/2000/svg" xmlns:xlink="http://www.w3.org/1999/xlink" x="0px"
	 y="0px" viewBox="0 0 200 200" style="enable-background:new 0 0 200 200;" xml:space="preserve">
<style type="text/css">
	
		.st0{fill-rule:evenodd;clip-rule:evenodd;fill:#DB812E;stroke:#000000;stroke-width:1.9211;stroke-linejoin:round;stroke-miterlimit:33.89;}
	.st1{fill-rule:evenodd;clip-rule:evenodd;stroke:#000000;stroke-width:1.9211;stroke-linejoin:round;stroke-miterlimit:33.89;}
	.st2{fill-rule:evenodd;clip-rule:evenodd;}
</style>
<g>
	<path class="st0" d="M60.5,36.5L100,13.6v45.8L60.5,82.3V36.5z"/>
	<path class="st1" d="M139.5,36.5v45.8L100,59.4V13.6L139.5,36.5L139.5,36.5z"/>
	<path class="st0" d="M182.8,112.9v45.8l-39.5-22.9V90L182.8,112.9L182.8,112.9z"/>
	<path class="st1" d="M143.3,181.6l-39.5-22.9l39.5-22.9l39.5,22.9L143.3,181.6L143.3,181.6z"/>
	<path class="st0" d="M56.7,181.6l-39.5-22.9l39.5-22.9l39.5,22.9L56.7,181.6z"/>
	<path class="st1" d="M17.2,112.9L56.7,90v45.8l-39.5,22.9L17.2,112.9L17.2,112.9z"/>
	<path class="st2" d="M100,89.5c10.7,0,19.4,8.8,19.4,19.5s-8.7,19.5-19.4,19.5s-19.4-8.8-19.4-19.5S89.3,89.5,100,89.5z"/>
	<path class="st0" d="M119.9,93.7l19.6-11.3L100,59.4L60.5,82.3l19.6,11.3c4.6-6,11.8-9.9,19.9-9.9
		C108.1,83.8,115.3,87.7,119.9,93.7L119.9,93.7z M103.8,134v24.6l39.5-22.9V90l-19.4,11.2c0.8,2.5,1.2,5.1,1.2,7.8
		C125.1,121.7,115.9,132.2,103.8,134L103.8,134z M76.1,101.2L56.7,90v45.8l39.5,22.9V134c-12-1.9-21.3-12.4-21.3-25
		C74.9,106.3,75.3,103.7,76.1,101.2L76.1,101.2z"/>
</g>
</svg>
